<svg width="192" height="32" viewBox="0 0 192 32" fill="none" xmlns="http://www.w3.org/2000/svg">
<path fill-rule="evenodd" clip-rule="evenodd" d="M2 6H6V10H2V6ZM10 14H6V10H10V14ZM10 18V14H14V18H10ZM6 22V18H10V22H6ZM6 22V26H2V22H6ZM30 23H18V26H30V23Z" fill="#20AF97"/>
<path d="M47.248 24.336C46.048 24.336 45 24.088 44.104 23.592C43.208 23.08 42.504 22.368 41.992 21.456C41.496 20.528 41.248 19.456 41.248 18.24V17.952C41.248 16.72 41.496 15.648 41.992 14.736C42.488 13.808 43.176 13.096 44.056 12.6C44.952 12.088 45.984 11.832 47.152 11.832C48.288 11.832 49.28 12.088 50.128 12.6C50.992 13.096 51.664 13.792 52.144 14.688C52.624 15.584 52.864 16.632 52.864 17.832V18.768H43.768C43.8 19.808 44.144 20.64 44.8 21.264C45.472 21.872 46.304 22.176 47.296 22.176C48.224 22.176 48.92 21.968 49.384 21.552C49.864 21.136 50.232 20.656 50.488 20.112L52.528 21.168C52.304 21.616 51.976 22.088 51.544 22.584C51.128 23.08 50.576 23.496 49.888 23.832C49.2 24.168 48.32 24.336 47.248 24.336ZM43.792 16.872H50.344C50.28 15.976 49.96 15.28 49.384 14.784C48.808 14.272 48.056 14.016 47.128 14.016C46.2 14.016 45.44 14.272 44.848 14.784C44.272 15.28 43.92 15.976 43.792 16.872Z" fill="#212B34"/>
<path d="M54.0582 24L58.5702 18.024L54.1542 12.168H57.0582L60.1542 16.416H60.5382L63.6342 12.168H66.5622L62.1222 18.024L66.6342 24H63.6822L60.5382 19.656H60.1542L57.0102 24H54.0582Z" fill="#212B34"/>
<path d="M73.7328 24C73.0128 24 72.4368 23.784 72.0048 23.352C71.5888 22.92 71.3808 22.344 71.3808 21.624V14.256H68.1168V12.168H71.3808V8.25601H73.8528V12.168H77.3808V14.256H73.8528V21.192C73.8528 21.672 74.0768 21.912 74.5248 21.912H76.9968V24H73.7328Z" fill="#212B34"/>
<path d="M80.285 24V12.168H82.709V13.56H83.093C83.285 13.064 83.589 12.704 84.005 12.48C84.437 12.24 84.965 12.12 85.589 12.12H87.005V14.352H85.493C84.693 14.352 84.037 14.576 83.525 15.024C83.013 15.456 82.757 16.128 82.757 17.04V24H80.285Z" fill="#212B34"/>
<path d="M92.9101 24.336C92.0621 24.336 91.3021 24.192 90.6301 23.904C89.9741 23.616 89.4461 23.192 89.0461 22.632C88.6621 22.072 88.4701 21.392 88.4701 20.592C88.4701 19.776 88.6621 19.104 89.0461 18.576C89.4461 18.032 89.9821 17.624 90.6541 17.352C91.3421 17.08 92.1181 16.944 92.9821 16.944H96.5821V16.176C96.5821 15.488 96.3741 14.936 95.9581 14.52C95.5421 14.104 94.9021 13.896 94.0381 13.896C93.1901 13.896 92.5421 14.096 92.0941 14.496C91.6461 14.896 91.3501 15.416 91.2061 16.056L88.9021 15.312C89.0941 14.672 89.3981 14.096 89.8141 13.584C90.2461 13.056 90.8141 12.632 91.5181 12.312C92.2221 11.992 93.0701 11.832 94.0621 11.832C95.5981 11.832 96.8061 12.224 97.6861 13.008C98.5661 13.792 99.0061 14.904 99.0061 16.344V21.216C99.0061 21.696 99.2301 21.936 99.6781 21.936H100.686V24H98.8381C98.2781 24 97.8221 23.856 97.4701 23.568C97.1181 23.28 96.9421 22.888 96.9421 22.392V22.32H96.5821C96.4541 22.56 96.2621 22.84 96.0061 23.16C95.7501 23.48 95.3741 23.76 94.8781 24C94.3821 24.224 93.7261 24.336 92.9101 24.336ZM93.2701 22.296C94.2621 22.296 95.0621 22.016 95.6701 21.456C96.2781 20.88 96.5821 20.096 96.5821 19.104V18.864H93.1261C92.4701 18.864 91.9421 19.008 91.5421 19.296C91.1421 19.568 90.9421 19.976 90.9421 20.52C90.9421 21.064 91.1501 21.496 91.5661 21.816C91.9821 22.136 92.5501 22.296 93.2701 22.296Z" fill="#212B34"/>
<path d="M114.703 24.336C113.567 24.336 112.535 24.096 111.607 23.616C110.695 23.136 109.967 22.44 109.423 21.528C108.895 20.616 108.631 19.52 108.631 18.24V17.928C108.631 16.648 108.895 15.56 109.423 14.664C109.967 13.752 110.695 13.056 111.607 12.576C112.535 12.08 113.567 11.832 114.703 11.832C115.839 11.832 116.807 12.04 117.607 12.456C118.407 12.872 119.047 13.424 119.527 14.112C120.023 14.8 120.343 15.56 120.487 16.392L118.087 16.896C118.007 16.368 117.839 15.888 117.583 15.456C117.327 15.024 116.967 14.68 116.503 14.424C116.039 14.168 115.455 14.04 114.751 14.04C114.063 14.04 113.439 14.2 112.879 14.52C112.335 14.824 111.903 15.272 111.583 15.864C111.263 16.44 111.103 17.144 111.103 17.976V18.192C111.103 19.024 111.263 19.736 111.583 20.328C111.903 20.92 112.335 21.368 112.879 21.672C113.439 21.976 114.063 22.128 114.751 22.128C115.791 22.128 116.583 21.864 117.127 21.336C117.671 20.792 118.015 20.104 118.159 19.272L120.559 19.824C120.367 20.64 120.023 21.392 119.527 22.08C119.047 22.768 118.407 23.32 117.607 23.736C116.807 24.136 115.839 24.336 114.703 24.336Z" fill="#212B34"/>
<path d="M128.954 24.336C127.77 24.336 126.714 24.096 125.786 23.616C124.874 23.12 124.154 22.416 123.626 21.504C123.098 20.592 122.834 19.512 122.834 18.264V17.904C122.834 16.656 123.098 15.584 123.626 14.688C124.154 13.776 124.874 13.072 125.786 12.576C126.714 12.08 127.77 11.832 128.954 11.832C130.138 11.832 131.194 12.08 132.122 12.576C133.05 13.072 133.778 13.776 134.306 14.688C134.834 15.584 135.098 16.656 135.098 17.904V18.264C135.098 19.512 134.834 20.592 134.306 21.504C133.778 22.416 133.05 23.12 132.122 23.616C131.194 24.096 130.138 24.336 128.954 24.336ZM128.954 22.128C130.042 22.128 130.922 21.784 131.594 21.096C132.282 20.392 132.626 19.424 132.626 18.192V17.976C132.626 16.744 132.29 15.784 131.618 15.096C130.946 14.392 130.058 14.04 128.954 14.04C127.882 14.04 127.002 14.392 126.314 15.096C125.642 15.784 125.306 16.744 125.306 17.976V18.192C125.306 19.424 125.642 20.392 126.314 21.096C127.002 21.784 127.882 22.128 128.954 22.128Z" fill="#212B34"/>
<path d="M138.176 24V12.168H140.6V13.944H140.984C141.208 13.464 141.608 13.016 142.184 12.6C142.76 12.184 143.616 11.976 144.752 11.976C145.648 11.976 146.44 12.176 147.128 12.576C147.832 12.976 148.384 13.544 148.784 14.28C149.184 15 149.384 15.872 149.384 16.896V24H146.912V17.088C146.912 16.064 146.656 15.312 146.144 14.832C145.632 14.336 144.928 14.088 144.032 14.088C143.008 14.088 142.184 14.424 141.56 15.096C140.952 15.768 140.648 16.744 140.648 18.024V24H138.176Z" fill="#212B34"/>
<path d="M157.053 24C156.333 24 155.757 23.784 155.325 23.352C154.909 22.92 154.701 22.344 154.701 21.624V14.256H151.437V12.168H154.701V8.25601H157.173V12.168H160.701V14.256H157.173V21.192C157.173 21.672 157.397 21.912 157.845 21.912H160.317V24H157.053Z" fill="#212B34"/>
<path d="M163.605 24V12.168H166.029V13.56H166.413C166.605 13.064 166.909 12.704 167.325 12.48C167.757 12.24 168.285 12.12 168.909 12.12H170.325V14.352H168.813C168.013 14.352 167.357 14.576 166.845 15.024C166.333 15.456 166.077 16.128 166.077 17.04V24H163.605Z" fill="#212B34"/>
<path d="M172.887 24V12.168H175.359V24H172.887ZM174.135 10.56C173.655 10.56 173.247 10.408 172.911 10.104C172.591 9.78401 172.431 9.37601 172.431 8.88001C172.431 8.38401 172.591 7.98401 172.911 7.68001C173.247 7.36001 173.655 7.20001 174.135 7.20001C174.631 7.20001 175.039 7.36001 175.359 7.68001C175.679 7.98401 175.839 8.38401 175.839 8.88001C175.839 9.37601 175.679 9.78401 175.359 10.104C175.039 10.408 174.631 10.56 174.135 10.56Z" fill="#212B34"/>
<path d="M185.867 24.336C184.715 24.336 183.827 24.128 183.203 23.712C182.595 23.296 182.139 22.832 181.835 22.32H181.451V24H179.027V7.20001H181.499V13.776H181.883C182.075 13.456 182.331 13.152 182.651 12.864C182.971 12.56 183.395 12.312 183.923 12.12C184.451 11.928 185.099 11.832 185.867 11.832C186.859 11.832 187.771 12.072 188.603 12.552C189.435 13.032 190.099 13.728 190.595 14.64C191.091 15.552 191.339 16.64 191.339 17.904V18.264C191.339 19.544 191.083 20.64 190.571 21.552C190.075 22.448 189.411 23.136 188.579 23.616C187.763 24.096 186.859 24.336 185.867 24.336ZM185.147 22.176C186.219 22.176 187.099 21.832 187.787 21.144C188.491 20.456 188.843 19.472 188.843 18.192V17.976C188.843 16.712 188.499 15.736 187.811 15.048C187.123 14.36 186.235 14.016 185.147 14.016C184.091 14.016 183.211 14.36 182.507 15.048C181.819 15.736 181.475 16.712 181.475 17.976V18.192C181.475 19.472 181.819 20.456 182.507 21.144C183.211 21.832 184.091 22.176 185.147 22.176Z" fill="#212B34"/>
</svg>
